<?xml version="1.0" encoding="utf-8"?>
<!-- Generator: Adobe Illustrator 22.1.0, SVG Export Plug-In . SVG Version: 6.00 Build 0)  -->
<svg version="1.1" id="Layer_1" xmlns="http://www.w3.org/2000/svg" xmlns:xlink="http://www.w3.org/1999/xlink" x="0px" y="0px"
	 viewBox="0 0 43.7 43" style="enable-background:new 0 0 43.7 43;" xml:space="preserve">
<style type="text/css">
	.st0{fill:#FFFFFF;}
	.st1{fill:none;}
	.st2{enable-background:new    ;}
</style>
<g>
	<g>
		<path class="st0" d="M21.8,42.3C10.4,42.3,1,33,1,21.5S10.4,0.7,21.8,0.7S42.7,10,42.7,21.5S33.3,42.3,21.8,42.3z M21.8,3.4
			c-10,0-18.1,8.1-18.1,18.1s8.1,18.1,18.1,18.1s18.1-8.1,18.1-18.1S31.8,3.4,21.8,3.4z"/>
	</g>
	<g>
		<rect x="8.8" y="15.4" class="st1" width="26.5" height="12.1"/>
	</g>
	<g class="st2">
		<path class="st0" d="M12.2,25.8v-7.5L9.9,19v-1.7l4.2-1.5h0.2v9.9H12.2z"/>
		<path class="st0" d="M23.7,21.7c0.3,0.4,0.4,0.9,0.4,1.4c0,0.6-0.2,1.1-0.5,1.6s-0.6,0.7-1.2,0.9c-0.5,0.2-1.1,0.4-1.8,0.4
			c-0.6,0-1.2-0.1-1.8-0.4c-0.5-0.2-0.9-0.6-1.2-0.9c-0.3-0.5-0.5-0.9-0.5-1.6c0-0.6,0.1-1,0.4-1.4c0.3-0.4,0.6-0.7,1.1-0.9
			c-0.5-0.2-0.7-0.6-1-0.9c-0.3-0.4-0.4-0.8-0.4-1.3c0-0.6,0.1-1.1,0.4-1.5c0.3-0.4,0.6-0.7,1.1-0.9c0.5-0.2,1-0.3,1.7-0.3
			c0.6,0,1.2,0.1,1.7,0.3s0.8,0.6,1.1,0.9c0.3,0.4,0.4,0.9,0.4,1.5c0,0.5-0.1,0.9-0.4,1.3c-0.3,0.4-0.6,0.6-1,0.9
			C23,20.9,23.4,21.2,23.7,21.7z M21.7,23.9c0.3-0.3,0.4-0.6,0.4-1s-0.1-0.7-0.4-1c-0.3-0.3-0.6-0.4-0.9-0.4c-0.4,0-0.7,0.1-0.9,0.4
			c-0.3,0.3-0.4,0.6-0.4,1c0,0.4,0.1,0.7,0.4,1c0.3,0.3,0.6,0.4,0.9,0.4C21.2,24.3,21.5,24.2,21.7,23.9z M19.9,17.7
			c-0.2,0.2-0.3,0.6-0.3,0.9c0,0.4,0.1,0.6,0.3,0.9c0.2,0.2,0.5,0.4,0.8,0.4c0.4,0,0.6-0.1,0.8-0.4c0.2-0.3,0.3-0.6,0.3-0.9
			s-0.1-0.6-0.3-0.9c-0.2-0.2-0.5-0.4-0.8-0.4C20.4,17.3,20.1,17.5,19.9,17.7z"/>
		<path class="st0" d="M31.8,22.1h-2.4v2.7h-1.9v-2.7h-2.4v-1.9h2.4v-2.6h1.9v2.6h2.4C31.8,20.2,31.8,22.1,31.8,22.1z"/>
	</g>
</g>
<g>
	<g>
		<path class="st0" d="M-113.8,18.4c-12.4,0-22.5-10.1-22.5-22.5s10.1-22.5,22.5-22.5s22.5,10.1,22.5,22.5
			C-91.2,8.3-101.3,18.4-113.8,18.4z M-113.8-23.6c-10.8,0-19.5,8.7-19.5,19.5s8.7,19.5,19.5,19.5s19.5-8.7,19.5-19.5
			C-94.2-14.8-103-23.6-113.8-23.6z"/>
	</g>
	<g>
		<rect x="-127.8" y="-10.7" class="st1" width="28.6" height="13.1"/>
	</g>
	<g class="st2">
		<path class="st0" d="M-124.1,0.6v-8.1l-2.5,0.8v-1.8l4.5-1.6h0.2V0.6H-124.1z"/>
		<path class="st0" d="M-111.7-3.9c0.3,0.4,0.4,1,0.4,1.5c0,0.7-0.2,1.2-0.5,1.7s-0.7,0.8-1.3,1c-0.5,0.2-1.2,0.4-1.9,0.4
			c-0.7,0-1.3-0.1-1.9-0.4c-0.5-0.2-1-0.6-1.3-1c-0.3-0.5-0.5-1-0.5-1.7c0-0.6,0.1-1.1,0.4-1.5s0.7-0.8,1.2-1
			c-0.5-0.2-0.8-0.6-1.1-1s-0.4-0.9-0.4-1.4c0-0.6,0.1-1.2,0.4-1.6s0.7-0.8,1.2-1s1.1-0.3,1.8-0.3c0.7,0,1.3,0.1,1.8,0.3
			s0.9,0.6,1.2,1s0.4,1,0.4,1.6c0,0.5-0.1,1-0.4,1.4c-0.3,0.4-0.6,0.7-1.1,1C-112.4-4.7-112-4.3-111.7-3.9z M-113.9-1.5
			c0.3-0.3,0.4-0.6,0.4-1.1s-0.1-0.8-0.4-1.1s-0.6-0.4-1-0.4s-0.8,0.1-1,0.4c-0.3,0.3-0.4,0.6-0.4,1.1c0,0.4,0.1,0.8,0.4,1.1
			s0.6,0.4,1,0.4S-114.1-1.2-113.9-1.5z M-115.8-8.1c-0.2,0.2-0.3,0.6-0.3,1s0.1,0.7,0.3,1c0.2,0.2,0.5,0.4,0.9,0.4s0.7-0.1,0.9-0.4
			s0.3-0.6,0.3-1s-0.1-0.7-0.3-1c-0.2-0.2-0.5-0.4-0.9-0.4S-115.6-8.4-115.8-8.1z"/>
		<path class="st0" d="M-102.9-3.5h-2.6v3h-2.1v-3h-2.6v-2h2.6v-2.8h2.1v2.8h2.6V-3.5z"/>
	</g>
</g>
</svg>
