<?xml version="1.0" encoding="utf-8"?>
<!-- Generator: Adobe Illustrator 22.1.0, SVG Export Plug-In . SVG Version: 6.00 Build 0)  -->
<svg version="1.1" id="Layer_1" xmlns="http://www.w3.org/2000/svg" xmlns:xlink="http://www.w3.org/1999/xlink" x="0px" y="0px"
	 viewBox="0 0 381 45.9" style="enable-background:new 0 0 381 45.9;" xml:space="preserve">
<style type="text/css">
	.st0{fill:#FFFFFF;}
</style>
<title>gambleaware-helpline-logo-vector</title>
<g>
	<path class="st0" d="M21.3,23.5h14v20h-4.6v-6.2c-0.7,1.4-1.8,2.7-3,3.7c-2.5,2.2-5.8,3.5-9.3,3.5c-9.3,0-16.6-9.1-16.6-20.9
		S9,2.5,18.4,2.5c3.8,0,8.3,1.1,12,6.9V3.1h4.2v12.7h-4.4c-0.4-1.8-1.1-3.5-2.2-4.9c-2.1-2.7-5.2-4.3-8.5-4.4
		c-5,0-12.1,4.2-12.1,16.7c0,9.6,5.2,16.9,12.2,16.9c5.1,0,9.8-4.1,11.1-9.6c0.2-1,0.3-2.2,0.3-3.3h-9.4v-3.8
		C21.4,23.5,21.3,23.5,21.3,23.5z"/>
	<path class="st0" d="M69.5,43.4h-8.7V38c-2.4,3.8-5.7,6-10.3,6c-5.7,0-9.8-3.9-9.8-9.3c0-5.8,5.2-8.7,17.2-9.8
		c0.4-0.1,1.7-0.2,2.8-0.3v-3.2c0-3.5-2.7-5.6-6.9-5.6c-4.5,0-6.5,1.5-7.4,5.4h-4.6c0.7-3.1,1.6-4.7,3.5-6.3
		c2.3-1.8,5.2-2.7,8.2-2.6c6.3,0,11.6,2.9,11.6,10.6v16.9h4.3L69.5,43.4L69.5,43.4z M60.8,27.8L58,28.1c-9.4,1.1-12.5,2.8-12.5,6.7
		c0.2,3.4,3,6,6.4,5.8l0,0c5.4,0,9-5.2,9-8L60.8,27.8L60.8,27.8z"/>
	<path class="st0" d="M82.1,18.5c1.4-2.1,4.1-6.4,9.7-6.4c4,0,6.4,2.2,7.1,6.4c0.7-1.4,1.7-2.7,2.9-3.7c1.8-1.7,4.1-2.6,6.6-2.6
		c4.7,0,7.4,3,7.4,8.3v19.4h4.2v3.6h-8.6V22.2c0-4.3-1.4-6.2-4.4-6.2c-5.3,0-8.1,6.4-8.1,8.4v15.5h4.4v3.6h-8.8v-22
		c0-3.8-1.4-5.5-4.4-5.5c-4.7,0-8.1,5.9-8.1,8.7v15.3h4.3v3.6H73.3v-3.6h4.5V16.3h-4.5v-3.7h8.9L82.1,18.5L82.1,18.5z"/>
	<path class="st0" d="M124.7,1.5h8.5v17.7c1.1-2.2,4.7-6.7,10-6.7c6.9,0,12.2,7,12.2,16c0,8.4-5.6,15.4-12.3,15.4
		c-5.4,0-8.1-3.6-9.9-6.2v5.7h-8.7v-3.5h4.3V5h-4.1L124.7,1.5L124.7,1.5z M133.2,30.5c0,5.1,4.1,9.6,8.8,9.6c5.2,0,8.6-4.7,8.6-12.1
		c0-7-3.4-11.9-8.4-11.9c-4.5,0-9,5-9,9.3L133.2,30.5L133.2,30.5z"/>
	<polygon class="st0" points="158.9,1.5 167.7,1.5 167.7,39.9 171.7,39.9 171.7,43.4 158.9,43.4 158.9,39.9 163.3,39.9 163.3,5 
		158.9,5 	"/>
	<path class="st0" d="M201.4,35c-0.5,1.7-1.3,3.4-2.4,4.7c-2.4,2.8-5.9,4.4-9.6,4.4c-8.3,0-14.1-6.6-14.1-15.8
		c0-9,5.8-15.9,13.4-15.9s13.5,5.9,13.5,16.7h-22.2c0.4,4.5,1.4,7,3.6,9.1c1.5,1.5,3.7,2.3,5.7,2.2c3.6,0,5.7-1.6,7.2-5.3H201.4z
		 M197,25.6c-0.4-3.8-1.2-5.9-3-7.7c-1.4-1.2-3.2-2-5.1-1.9c-3.7,0-6.7,2.5-8.2,6.6c-0.3,0.9-0.5,2-0.7,3H197z"/>
	<path class="st0" d="M220.7,3.2h9.7l11.1,33.6h3v6.6h-9.3l-2.6-8.7h-14.1l-2.6,8.7h-9.4v-6.6h3.1L220.7,3.2L220.7,3.2z M225.6,10.7
		l-5.3,17.8h10.6L225.6,10.7z"/>
	<polygon class="st0" points="244.2,12.9 256.5,12.9 256.5,18.9 253.4,18.9 257.6,36.9 262.7,12.9 270.5,12.9 275.6,36.6 
		279.6,18.9 276.6,18.9 276.6,12.9 288.9,12.9 288.9,18.9 286.3,18.9 279.7,43.4 271.7,43.4 266.5,22.2 261.7,43.4 253.6,43.4 
		246.8,18.9 244.2,18.9 	"/>
	<path class="st0" d="M317.8,37.5h2.6v5.9h-9.5v-3.6c-3.1,3.2-5.4,4.2-9.3,4.2c-6.1,0-10.8-4.1-10.8-9.6c0-9,10.1-9.9,19.9-10.9
		c-0.1-4.7-1.2-5.9-5.6-5.9c-3.1,0-5.3,1.8-5.4,4.6l-7.4-0.2c0.4-6.1,5.3-10,12.6-10c8.4,0,13,3.8,13,10.8L317.8,37.5L317.8,37.5z
		 M310.6,29c-7.2,0.7-11.9,1.3-11.9,5.5c0,2.5,2,4.1,5,4.1c3.7,0.1,6.7-2.8,6.8-6.5c0-0.1,0-0.2,0-0.3L310.6,29L310.6,29z"/>
	<path class="st0" d="M336.1,17.7c2-3.8,4.2-5.5,7.7-5.5c1.1,0,2.3,0.2,3.5,0.4v7.1c-1.2-0.3-2.5-0.4-3.7-0.4c-4,0-7.3,2.8-7.3,6.4
		v11.9h3.7v5.9h-14.1v-5.9h3V18.9h-2.9V13h10.3L336.1,17.7L336.1,17.7z"/>
	<path class="st0" d="M377.9,33.4c-1.4,6.7-6.9,10.8-14.3,10.8c-8.5,0-14.8-6.7-14.8-16S355.1,12,363.7,12c4.7-0.1,9.2,2.2,11.7,6.2
		c2.8,4.3,2.9,8.3,3,11.4h-22c0.7,8,5.9,8.3,7.4,8.3c3,0,5.1-1.4,6.2-4.6H377.9z M370.1,24.4c-0.5-3.8-2.8-6-6.5-6
		c-3.3,0-5.9,2.2-6.8,6H370.1z"/>
</g>
</svg>
